# xmcd
#
# Track frame offsets:
#	150
#	19497
#	38927
#	57045
#	76372
#	96922
#	115750
#	134960
#	155590
#	174747
#
# Disc length: 2572 seconds
#
# Revision: 0
# Processed by: cddbd v1.5.2PL0 Copyright (c) Steve Scherf et al.
# Submitted via: EasyCDDAExtractor 15.3.0.1
#
DISCID=8a0a0a0a
DTITLE=Jessica Cristina - Natural
DYEAR=1997
DGENRE=Latin
TTITLE0=Te Lo Dije
TTITLE1=Y Voy A Ser Feliz
TTITLE2=Me Gusta
TTITLE3=Te Voy A Olvidar
TTITLE4=Lo Tengo Dominao
TTITLE5=Amame De Nuevo
TTITLE6=Se Acabo El Amor
TTITLE7=Preguntame
TTITLE8=Te Devoro
TTITLE9=Enseñame
EXTD=
EXTT0=
EXTT1=
EXTT2=
EXTT3=
EXTT4=
EXTT5=
EXTT6=
EXTT7=
EXTT8=
EXTT9=
PLAYORDER=
